<?xml version="1.0" encoding="UTF-8" ?>
<!DOCTYPE svg PUBLIC "-//W3C//DTD SVG 1.1//EN" "http://www.w3.org/Graphics/SVG/1.1/DTD/svg11.dtd">
<svg width="626pt" height="626pt" viewBox="0 0 626 626" version="1.1" xmlns="http://www.w3.org/2000/svg">
<g id="#6a98c8ff">
<path fill="#6a98c8" opacity="1.00" d=" M 0.00 0.00 L 23.50 0.00 L 24.39 0.43 C 22.39 8.78 16.70 16.02 16.38 24.77 C 15.85 24.84 14.80 24.97 14.28 25.04 C 11.68 25.25 9.04 25.82 6.44 25.35 C 3.70 24.22 1.84 21.75 0.00 19.54 L 0.00 0.00 Z" />
<path fill="#6a98c8" opacity="1.00" d=" M 208.70 0.00 L 223.54 0.00 C 221.72 5.56 219.46 10.98 216.72 16.16 C 213.62 10.98 211.52 5.31 208.70 0.00 Z" />
<path fill="#6a98c8" opacity="1.00" d=" M 157.72 5.65 C 164.09 7.72 169.45 11.92 175.67 14.35 C 179.57 15.86 183.22 17.97 186.40 20.68 C 183.69 21.76 180.97 22.82 178.27 23.94 C 176.34 27.59 173.54 30.66 170.51 33.42 C 168.71 33.44 166.91 33.48 165.12 33.54 C 164.46 36.13 163.39 38.59 161.99 40.86 C 161.25 42.83 160.67 44.88 159.65 46.73 C 158.44 48.42 156.51 49.40 154.86 50.60 C 150.50 49.02 146.20 47.27 142.07 45.14 C 144.84 37.65 148.07 30.35 150.79 22.85 C 152.83 17.01 155.29 11.34 157.72 5.65 Z" />
</g>
<g id="#79a7ceff">
<path fill="#79a7ce" opacity="1.00" d=" M 23.50 0.00 L 125.67 0.00 C 124.53 3.38 123.51 6.81 122.22 10.14 C 117.31 7.06 112.30 4.12 106.93 1.92 C 109.70 4.96 112.35 8.13 114.65 11.54 C 113.49 12.26 112.32 12.97 111.16 13.67 C 114.09 14.32 117.00 15.03 119.90 15.80 C 118.23 21.35 117.61 27.44 114.41 32.39 C 110.78 32.57 107.32 31.16 103.84 30.35 C 92.77 27.60 82.57 22.36 71.98 18.26 C 69.44 17.44 66.86 16.79 64.29 16.06 C 60.61 14.43 56.87 12.95 53.01 11.81 C 47.68 10.20 42.91 7.19 37.62 5.47 C 33.14 3.99 28.58 2.64 24.39 0.43 L 23.50 0.00 Z" />
<path fill="#79a7ce" opacity="1.00" d=" M 159.91 0.00 L 208.70 0.00 C 211.52 5.31 213.62 10.98 216.72 16.16 C 219.46 10.98 221.72 5.56 223.54 0.00 L 267.35 0.00 C 269.01 2.77 270.83 5.58 271.49 8.79 C 268.82 14.14 262.58 15.84 257.92 18.94 C 253.78 21.44 252.42 26.84 247.97 28.93 C 243.59 31.02 239.03 32.73 234.73 35.00 C 238.26 37.31 241.88 39.55 245.79 41.17 C 248.29 42.30 250.93 43.16 253.25 44.66 C 254.19 46.52 251.86 47.96 251.15 49.50 C 253.65 48.88 256.21 48.29 258.81 48.53 C 262.63 48.79 266.60 49.91 270.33 48.45 C 276.79 46.22 282.71 42.58 289.37 40.86 C 286.26 49.99 282.43 58.85 278.95 67.84 C 275.88 76.77 272.26 85.50 268.67 94.22 C 260.91 86.59 254.84 77.47 247.73 69.25 C 243.77 64.79 240.99 59.43 236.96 55.02 C 234.20 52.09 231.56 49.04 229.35 45.67 C 225.97 40.47 221.01 36.55 217.68 31.32 C 215.60 28.12 213.16 25.18 210.34 22.62 C 209.46 26.72 209.05 30.91 207.96 34.96 C 207.21 37.85 204.72 39.74 202.57 41.60 C 194.81 47.82 187.43 54.52 179.27 60.22 C 171.08 57.14 162.97 53.88 154.86 50.60 C 156.51 49.40 158.44 48.42 159.65 46.73 C 160.67 44.88 161.25 42.83 161.99 40.86 C 163.39 38.59 164.46 36.13 165.12 33.54 C 166.91 33.48 168.71 33.44 170.51 33.42 C 173.54 30.66 176.34 27.59 178.27 23.94 C 180.97 22.82 183.69 21.76 186.40 20.68 C 183.22 17.97 179.57 15.86 175.67 14.35 C 169.45 11.92 164.09 7.72 157.72 5.65 C 158.47 3.78 159.19 1.89 159.91 0.00 Z" />
<path fill="#79a7ce" opacity="1.00" d=" M 0.00 19.54 C 1.84 21.75 3.70 24.22 6.44 25.35 C 9.04 25.82 11.68 25.25 14.28 25.04 C 14.67 25.93 15.13 26.94 14.61 27.89 C 12.90 32.01 10.65 35.88 8.99 40.03 C 6.02 46.67 3.78 53.65 0.00 59.92 L 0.00 19.54 Z" />
<path fill="#79a7ce" opacity="1.00" d=" M 0.00 87.50 C 0.87 89.20 1.84 90.86 2.71 92.57 C 4.37 97.03 6.14 101.46 8.15 105.78 C 12.43 115.02 16.00 124.56 19.92 133.96 C 22.74 140.80 26.75 147.08 29.42 154.00 C 25.14 157.87 20.75 161.65 16.12 165.11 C 12.96 167.49 8.79 167.62 5.39 169.49 C 3.18 171.06 1.58 173.33 0.00 175.50 L 0.00 87.50 Z" />
</g>
<g id="#87b7d7ff">
<path fill="#87b7d7" opacity="1.00" d=" M 125.67 0.00 L 159.91 0.00 C 159.19 1.89 158.47 3.78 157.72 5.65 C 155.29 11.34 152.83 17.01 150.79 22.85 C 148.07 30.35 144.84 37.65 142.07 45.14 C 146.20 47.27 150.50 49.02 154.86 50.60 C 162.97 53.88 171.08 57.14 179.27 60.22 L 179.91 60.51 C 176.91 62.21 174.09 64.20 171.45 66.41 C 166.87 70.22 161.92 73.54 157.18 77.15 C 151.09 81.68 145.98 87.37 139.78 91.78 C 132.46 97.11 126.16 103.84 118.15 108.18 C 119.52 102.28 121.81 96.65 124.13 91.06 C 128.09 80.64 132.16 70.26 136.27 59.89 C 138.26 55.26 139.87 50.48 140.93 45.55 C 136.88 44.22 132.86 42.81 128.97 41.09 C 124.37 39.14 119.80 36.84 114.78 36.18 C 111.94 35.74 109.41 37.41 106.94 38.54 C 106.36 37.77 105.79 37.01 105.22 36.25 C 102.76 39.26 100.29 42.26 97.69 45.14 C 96.33 43.88 95.06 42.47 93.46 41.49 C 91.68 41.09 89.84 41.15 88.03 41.08 C 88.23 43.05 87.98 45.19 88.96 47.00 C 89.79 48.06 90.75 49.01 91.68 49.99 C 89.50 51.12 87.33 52.28 85.17 53.46 C 84.20 52.36 83.24 51.27 82.27 50.18 C 80.71 53.15 79.72 57.16 76.19 58.37 C 70.68 60.39 64.73 59.09 59.03 59.12 C 52.15 59.12 45.29 58.18 38.42 58.62 C 36.55 58.59 34.56 58.99 32.79 58.26 C 30.31 56.46 28.82 53.68 27.10 51.22 C 35.07 44.39 43.60 38.27 51.96 31.94 C 58.02 26.55 64.30 21.20 71.98 18.26 C 82.57 22.36 92.77 27.60 103.84 30.35 C 107.32 31.16 110.78 32.57 114.41 32.39 C 117.61 27.44 118.23 21.35 119.90 15.80 C 117.00 15.03 114.09 14.32 111.16 13.67 C 112.32 12.97 113.49 12.26 114.65 11.54 C 112.35 8.13 109.70 4.96 106.93 1.92 C 112.30 4.12 117.31 7.06 122.22 10.14 C 123.51 6.81 124.53 3.38 125.67 0.00 Z" />
<path fill="#87b7d7" opacity="1.00" d=" M 267.35 0.00 L 268.29 0.00 C 276.81 10.26 284.12 21.49 293.07 31.42 C 292.92 31.80 292.61 32.58 292.46 32.96 C 291.61 35.14 290.74 37.31 289.89 39.49 C 289.76 39.83 289.50 40.51 289.37 40.86 C 282.71 42.58 276.79 46.22 270.33 48.45 C 266.60 49.91 262.63 48.79 258.81 48.53 C 256.21 48.29 253.65 48.88 251.15 49.50 C 251.86 47.96 254.19 46.52 253.25 44.66 C 250.93 43.16 248.29 42.30 245.79 41.17 C 241.88 39.55 238.26 37.31 234.73 35.00 C 239.03 32.73 243.59 31.02 247.97 28.93 C 252.42 26.84 253.78 21.44 257.92 18.94 C 262.58 15.84 268.82 14.14 271.49 8.79 C 270.83 5.58 269.01 2.77 267.35 0.00 Z" />
<path fill="#87b7d7" opacity="1.00" d=" M 24.39 0.43 C 28.58 2.64 33.14 3.99 37.62 5.47 C 42.91 7.19 47.68 10.20 53.01 11.81 C 56.87 12.95 60.61 14.43 64.29 16.06 C 62.58 16.02 60.86 16.06 59.15 16.10 C 56.94 18.21 54.21 19.79 51.11 20.00 C 39.48 21.20 27.97 23.32 16.38 24.77 C 16.70 16.02 22.39 8.78 24.39 0.43 Z" />
</g>
<g id="#96c2deff">
<path fill="#96c2de" opacity="1.00" d=" M 268.29 0.00 L 305.43 0.00 C 301.80 10.66 297.26 20.97 293.07 31.42 C 284.12 21.49 276.81 10.26 268.29 0.00 Z" />
<path fill="#96c2de" opacity="1.00" d=" M 59.15 16.10 C 60.86 16.06 62.58 16.02 64.29 16.06 C 66.86 16.79 69.44 17.44 71.98 18.26 C 64.30 21.20 58.02 26.55 51.96 31.94 C 43.60 38.27 35.07 44.39 27.10 51.22 C 28.82 53.68 30.31 56.46 32.79 58.26 C 34.56 58.99 36.55 58.59 38.42 58.62 C 45.29 58.18 52.15 59.12 59.03 59.12 C 64.73 59.09 70.68 60.39 76.19 58.37 C 79.72 57.16 80.71 53.15 82.27 50.18 C 83.24 51.27 84.20 52.36 85.17 53.46 C 87.33 52.28 89.50 51.12 91.68 49.99 C 90.75 49.01 89.79 48.06 88.96 47.00 C 87.98 45.19 88.23 43.05 88.03 41.08 C 89.84 41.15 91.68 41.09 93.46 41.49 C 95.06 42.47 96.33 43.88 97.69 45.14 C 100.29 42.26 102.76 39.26 105.22 36.25 C 105.79 37.01 106.36 37.77 106.94 38.54 C 109.41 37.41 111.94 35.74 114.78 36.18 C 119.80 36.84 124.37 39.14 128.97 41.09 C 132.86 42.81 136.88 44.22 140.93 45.55 C 139.87 50.48 138.26 55.26 136.27 59.89 C 135.00 58.32 133.93 56.17 131.75 55.76 C 128.24 54.95 124.74 56.26 121.38 57.15 C 120.71 56.59 120.04 56.02 119.37 55.46 C 118.78 58.40 118.53 61.49 117.15 64.19 C 115.92 66.05 113.44 65.70 111.56 65.40 C 101.35 63.30 90.64 62.67 80.40 64.88 C 77.95 64.15 75.34 62.60 72.77 63.70 C 67.69 65.58 65.11 70.83 60.61 73.57 C 57.78 75.42 54.39 76.49 51.98 78.94 C 50.48 81.09 50.30 83.83 49.71 86.33 C 48.18 85.57 46.66 84.77 45.03 84.23 C 43.02 85.57 41.75 87.70 40.32 89.60 C 33.61 86.61 28.66 80.91 22.06 77.76 C 26.22 83.03 32.11 86.57 36.18 91.93 C 35.02 92.44 33.86 92.95 32.70 93.46 C 32.97 94.64 33.23 95.82 33.49 97.00 C 31.12 96.64 28.59 96.62 26.44 95.45 C 24.13 93.81 22.52 91.41 20.62 89.35 C 17.60 85.85 13.79 83.18 10.12 80.42 C 9.99 81.82 9.86 83.21 9.74 84.61 C 7.41 85.41 5.09 86.25 2.75 87.03 C 2.71 88.87 2.66 90.72 2.71 92.57 C 1.84 90.86 0.87 89.20 0.00 87.50 L 0.00 81.57 C 2.72 79.45 5.35 77.23 7.84 74.86 C 14.52 68.46 22.33 63.41 29.07 57.08 C 24.94 49.25 19.29 42.36 12.89 36.29 C 11.57 37.52 10.24 38.74 8.99 40.03 C 10.65 35.88 12.90 32.01 14.61 27.89 C 15.13 26.94 14.67 25.93 14.28 25.04 C 14.80 24.97 15.85 24.84 16.38 24.77 C 27.97 23.32 39.48 21.20 51.11 20.00 C 54.21 19.79 56.94 18.21 59.15 16.10 Z" />
<path fill="#96c2de" opacity="1.00" d=" M 165.69 95.62 C 168.61 94.20 171.82 93.53 175.05 93.37 C 172.59 98.23 169.10 102.43 165.66 106.62 C 163.14 109.60 161.60 113.39 158.62 115.98 C 155.22 115.75 151.93 114.37 148.49 114.66 C 145.27 115.01 142.15 115.91 139.00 116.61 C 140.52 117.28 142.04 117.95 143.56 118.61 C 142.76 120.13 141.85 121.63 141.38 123.30 C 141.00 125.78 141.42 128.29 141.63 130.77 C 138.06 129.71 134.41 128.96 130.79 128.12 C 123.41 125.69 116.18 122.83 109.04 119.77 C 111.06 118.43 113.09 117.11 115.22 115.96 C 126.76 111.17 138.59 107.10 149.99 101.98 C 155.20 99.80 160.56 98.00 165.69 95.62 Z" />
</g>
<g id="#bfdaecff">
<path fill="#bfdaec" opacity="1.00" d=" M 305.43 0.00 L 336.54 0.00 C 342.50 2.50 348.08 5.95 354.34 7.73 C 357.60 8.65 361.01 8.63 364.37 8.68 C 363.11 12.82 361.67 16.91 359.93 20.88 C 355.73 30.48 352.53 40.47 348.51 50.14 C 347.88 48.35 347.44 46.43 346.39 44.82 C 343.74 42.36 339.62 41.69 337.78 38.34 C 335.20 34.02 331.67 30.24 329.99 25.44 C 325.06 25.23 319.91 25.06 315.30 27.11 C 310.98 28.87 307.61 32.17 303.86 34.82 C 302.23 35.88 300.34 37.09 298.31 36.67 C 296.09 35.92 294.31 34.32 292.46 32.96 C 292.61 32.58 292.92 31.80 293.07 31.42 C 297.26 20.97 301.80 10.66 305.43 0.00 Z" />
<path fill="#bfdaec" opacity="1.00" d=" M 85.00 135.52 C 89.14 132.38 93.30 129.25 97.90 126.80 C 103.36 131.35 108.25 136.49 113.21 141.55 C 115.27 140.27 117.64 139.18 118.98 137.05 C 120.83 134.15 122.18 130.97 123.73 127.90 C 125.60 129.23 127.36 130.98 129.70 131.37 C 133.52 132.00 137.43 131.99 141.23 132.78 C 153.79 136.86 165.77 142.48 178.27 146.70 C 179.89 147.74 181.51 148.85 182.72 150.38 C 182.36 154.23 180.63 157.77 179.31 161.36 C 176.57 168.10 175.06 175.30 171.85 181.87 C 168.85 187.88 167.02 194.37 164.56 200.61 C 163.91 202.57 162.98 204.58 163.18 206.69 C 164.14 208.94 166.00 210.62 167.62 212.39 C 172.54 217.21 175.65 224.00 182.28 226.88 C 179.91 221.63 176.40 216.98 174.20 211.64 C 180.41 217.90 185.64 225.05 191.81 231.34 C 192.18 229.09 192.52 226.84 192.82 224.59 C 194.54 223.43 196.25 222.28 197.98 221.14 C 193.53 217.51 188.92 213.89 185.90 208.92 C 189.42 210.66 192.58 212.99 195.82 215.20 C 199.28 217.58 203.51 218.20 207.52 219.06 C 209.59 216.33 211.62 213.49 214.40 211.42 C 217.18 209.36 220.52 208.32 223.75 207.17 C 224.94 208.68 226.14 210.19 227.35 211.70 C 226.49 209.38 225.39 207.13 224.89 204.70 C 224.61 202.26 225.45 199.83 225.28 197.38 C 224.90 195.75 224.10 194.27 223.42 192.75 C 225.37 191.15 227.73 189.86 229.12 187.69 C 229.70 185.63 229.57 183.45 229.76 181.34 C 229.96 176.69 231.33 172.22 232.70 167.82 C 234.76 168.53 236.81 169.26 238.84 170.05 C 239.82 170.44 240.80 170.83 241.78 171.22 C 240.70 171.21 239.62 171.21 238.55 171.24 C 236.35 176.88 233.93 182.46 232.17 188.27 C 240.31 185.40 248.04 181.50 255.96 178.11 C 255.26 177.23 254.56 176.34 253.87 175.46 C 255.42 175.93 256.96 176.46 258.45 177.12 C 268.36 182.83 279.49 185.81 290.18 189.67 C 290.96 189.95 291.73 190.25 292.51 190.55 C 293.64 186.53 294.85 182.54 296.09 178.56 C 296.61 178.67 297.64 178.90 298.15 179.01 C 296.86 182.45 295.28 185.80 294.45 189.39 C 293.63 192.56 295.35 195.57 296.58 198.38 C 298.63 202.50 300.32 206.79 301.92 211.11 C 303.90 216.54 306.97 221.48 309.07 226.86 C 310.59 230.69 311.79 234.65 313.70 238.32 C 315.63 242.02 317.92 245.55 319.52 249.42 C 323.17 258.35 326.71 267.34 330.81 276.08 C 334.52 283.90 336.80 292.33 341.01 299.92 C 341.71 303.03 342.17 306.19 342.65 309.34 C 338.95 311.67 335.61 314.65 331.53 316.32 C 328.12 317.17 324.57 316.37 321.12 316.24 C 312.37 315.78 303.18 314.90 295.54 310.23 C 288.56 312.86 281.20 310.73 274.02 310.68 C 267.58 310.52 261.05 309.84 254.70 311.26 C 254.50 312.35 254.29 313.44 254.07 314.53 C 252.99 315.18 251.87 315.79 250.91 316.61 C 250.82 318.22 251.06 319.81 251.21 321.41 C 249.02 323.83 247.02 326.46 245.83 329.53 C 243.64 334.88 240.76 339.90 237.68 344.79 C 235.75 347.74 234.75 351.15 233.91 354.54 C 225.04 352.97 216.76 349.30 208.14 346.80 C 202.41 345.22 197.33 342.06 191.87 339.82 C 188.88 338.59 186.09 336.96 183.42 335.16 C 180.57 338.23 178.40 341.82 176.34 345.44 C 177.76 348.87 178.94 352.44 179.02 356.19 C 181.15 354.75 183.29 353.33 185.46 351.97 C 186.79 354.93 188.10 357.88 189.41 360.85 C 184.75 362.57 180.19 364.53 175.79 366.83 C 179.28 366.31 182.77 365.77 186.26 365.28 C 183.09 371.20 179.01 376.60 174.25 381.33 C 169.88 385.48 167.54 391.16 163.79 395.80 C 161.75 398.29 159.87 401.25 156.83 402.60 C 151.96 402.13 147.38 398.50 142.39 400.42 C 142.79 401.50 143.20 402.58 143.61 403.67 C 140.41 403.44 137.21 403.36 134.01 403.11 C 127.64 400.93 121.54 398.03 115.12 395.98 C 110.44 393.14 105.79 390.20 100.71 388.10 C 100.78 387.25 100.86 386.41 100.93 385.57 C 99.28 386.29 97.65 387.13 95.88 387.54 C 93.69 387.43 91.73 386.32 89.75 385.52 C 84.01 382.86 77.83 381.39 71.99 379.03 C 64.94 376.23 57.73 373.90 50.65 371.22 C 50.48 370.11 50.32 369.01 50.16 367.92 C 48.94 368.49 47.61 369.39 46.20 368.81 C 40.06 366.90 34.42 363.55 28.08 362.20 C 23.69 361.28 19.46 359.74 15.55 357.53 C 19.52 358.54 23.54 360.01 27.68 359.75 C 33.05 357.89 36.50 353.02 39.29 348.34 C 41.16 345.34 44.66 344.18 47.48 342.32 C 52.22 339.22 56.54 335.05 58.48 329.60 C 65.16 337.91 70.48 347.69 79.43 353.86 C 85.24 348.43 92.01 344.19 98.13 339.13 C 101.01 336.71 104.48 334.81 106.60 331.61 C 105.61 326.60 102.66 322.15 101.67 317.08 C 101.87 315.14 102.16 313.22 102.43 311.29 C 101.82 311.29 101.22 311.29 100.62 311.29 C 100.30 309.51 99.98 307.72 99.65 305.94 C 106.13 309.05 113.71 308.41 120.04 312.01 C 119.02 314.94 117.64 317.83 117.36 320.96 C 117.53 321.32 117.86 322.04 118.02 322.39 C 121.03 321.69 123.38 319.61 125.52 317.50 C 131.07 311.87 137.83 307.63 143.41 302.03 C 140.93 297.49 136.24 293.31 137.05 287.68 C 137.24 285.19 137.07 282.69 136.60 280.24 C 137.40 280.50 138.21 280.76 139.02 281.02 C 142.63 275.47 144.41 269.05 147.19 263.10 C 149.90 257.96 152.36 252.27 157.42 248.98 C 155.77 248.73 154.12 248.47 152.47 248.21 C 152.55 246.40 152.63 244.59 152.70 242.78 C 150.72 243.30 148.74 243.83 146.77 244.38 C 146.06 246.72 145.36 249.07 144.59 251.40 C 144.75 248.70 144.96 246.00 145.23 243.31 C 141.70 241.42 138.38 239.18 134.95 237.10 C 131.68 234.99 127.58 235.71 123.94 236.05 C 128.56 234.25 132.99 231.97 136.93 228.93 C 130.51 225.49 123.40 223.81 116.64 221.20 C 108.19 218.20 100.17 214.11 91.63 211.32 C 77.05 206.67 63.30 199.78 48.70 195.17 C 49.68 199.49 50.60 204.06 53.49 207.57 C 54.12 208.25 54.82 209.13 55.84 209.15 C 59.77 209.34 63.67 207.95 67.59 208.55 C 69.71 209.59 71.23 211.50 73.00 213.01 C 76.04 215.92 79.97 218.04 82.04 221.84 C 85.18 227.43 88.75 232.76 91.51 238.56 C 92.97 241.62 95.48 243.95 97.97 246.17 C 100.12 245.61 102.29 245.11 104.43 244.48 C 98.67 247.75 92.23 249.49 86.25 252.28 C 82.59 253.96 78.88 255.53 75.13 257.02 C 71.83 250.18 69.01 243.13 65.83 236.23 C 62.48 228.91 59.93 221.22 55.94 214.20 C 49.24 217.48 45.37 224.23 42.82 230.95 C 40.12 238.25 37.45 245.56 34.80 252.88 C 31.82 261.31 28.30 269.61 26.46 278.40 C 25.27 278.93 24.10 279.49 22.92 280.05 C 19.96 281.47 16.91 282.70 13.89 284.00 C 15.39 282.69 16.80 281.29 18.23 279.90 C 16.18 278.22 14.17 276.48 11.93 275.05 C 8.20 272.62 3.59 271.96 0.00 269.26 L 0.00 177.04 C 8.80 179.62 17.34 183.00 26.00 186.03 C 32.69 188.34 39.09 191.50 46.03 193.06 C 44.47 187.33 41.94 181.96 39.65 176.50 C 39.90 173.92 40.56 171.29 42.26 169.26 C 46.81 163.48 53.00 159.34 58.27 154.26 C 62.28 150.22 68.40 149.47 72.40 145.41 C 76.21 141.62 80.57 138.51 85.00 135.52 M 254.43 287.40 C 252.36 288.66 251.36 291.05 249.81 292.83 C 247.49 295.99 243.37 297.14 241.08 300.30 C 240.42 302.61 241.70 305.33 244.27 305.54 C 246.47 305.38 248.44 304.25 250.42 303.37 C 257.81 299.68 265.48 296.56 273.16 293.52 C 271.49 291.88 269.69 290.34 267.52 289.44 C 263.48 287.62 258.84 285.94 254.43 287.40 Z" />
<path fill="#bfdaec" opacity="1.00" d=" M 270.55 140.89 C 271.30 140.33 272.05 139.78 272.80 139.23 C 277.02 141.19 281.39 142.85 285.93 143.92 C 293.33 145.66 300.35 148.69 307.71 150.58 C 308.45 149.38 309.20 148.20 309.91 146.98 C 309.28 149.10 308.80 151.27 308.20 153.40 C 307.54 155.30 306.77 157.16 306.07 159.04 C 306.10 158.37 306.15 157.01 306.18 156.33 C 298.39 159.97 290.43 163.18 282.47 166.39 C 277.03 158.56 276.31 148.54 270.55 140.89 Z" />
</g>
<g id="#d2e5f2ff">
<path fill="#d2e5f2" opacity="1.00" d=" M 336.54 0.00 L 402.29 0.00 C 407.48 2.50 412.65 5.08 418.13 6.93 C 430.08 11.08 441.89 15.64 453.61 20.43 C 455.59 21.16 457.61 21.97 459.76 22.00 C 461.48 21.78 462.24 20.00 462.59 18.52 C 463.10 15.90 462.02 13.33 461.08 10.94 C 459.45 7.23 457.75 3.54 455.79 0.00 L 498.68 0.00 C 495.17 7.11 493.62 15.44 487.84 21.22 C 487.69 22.07 487.54 22.92 487.40 23.77 C 479.96 22.16 472.89 19.26 465.57 17.26 C 465.18 19.19 465.09 21.23 464.20 23.01 C 461.87 25.41 458.73 27.07 457.09 30.10 C 453.05 37.06 450.85 45.04 445.67 51.33 C 444.01 48.99 442.45 46.59 441.00 44.13 C 441.10 47.33 441.34 50.58 440.77 53.76 C 440.34 56.53 437.81 58.33 435.41 59.38 C 431.53 60.86 427.35 61.32 423.35 62.40 C 427.89 64.04 432.73 64.32 437.48 64.89 C 436.23 66.51 435.23 68.44 433.48 69.58 C 429.72 71.10 425.39 70.17 422.16 67.87 C 417.70 64.82 413.47 61.28 408.23 59.60 C 409.82 61.93 411.49 64.19 413.20 66.44 C 410.25 67.27 407.29 68.24 404.21 68.38 C 401.34 68.47 398.74 67.09 396.13 66.12 C 393.42 65.00 390.56 64.24 387.91 62.97 C 384.56 61.10 382.77 57.07 378.96 55.89 C 376.51 54.87 374.07 56.22 371.81 57.07 C 364.92 54.98 357.63 54.22 351.07 51.08 C 347.51 57.87 345.01 65.12 342.21 72.24 C 341.65 74.15 340.63 76.30 341.54 78.26 C 344.38 80.79 348.49 81.23 351.37 83.70 C 352.16 85.38 352.55 87.20 353.04 88.98 C 350.83 90.16 348.55 91.25 346.49 92.69 C 344.57 94.04 343.48 96.20 341.97 97.95 C 340.67 99.57 338.84 100.60 337.15 101.75 C 336.56 99.89 335.98 98.03 335.41 96.16 C 334.86 96.62 334.32 97.07 333.78 97.53 C 332.84 101.58 331.40 105.53 328.96 108.93 C 326.26 112.81 324.00 117.01 322.59 121.55 C 320.37 128.62 316.20 134.90 314.21 142.05 C 312.89 146.14 312.52 151.23 308.20 153.40 C 308.80 151.27 309.28 149.10 309.91 146.98 C 316.70 130.10 323.95 113.39 330.15 96.27 C 332.61 89.77 335.46 83.41 337.74 76.84 C 340.87 67.76 344.89 59.03 348.51 50.14 C 352.53 40.47 355.73 30.48 359.93 20.88 C 361.67 16.91 363.11 12.82 364.37 8.68 C 361.01 8.63 357.60 8.65 354.34 7.73 C 348.08 5.95 342.50 2.50 336.54 0.00 Z" />
<path fill="#d2e5f2" opacity="1.00" d=" M 419.44 106.50 C 422.10 105.19 424.97 104.43 427.87 103.88 C 426.51 109.16 424.28 114.14 422.13 119.14 C 417.91 130.39 413.46 141.58 410.07 153.13 C 408.60 157.70 406.03 161.81 404.36 166.30 C 401.85 172.78 399.26 179.25 396.01 185.40 C 390.48 184.19 385.03 182.53 379.90 180.14 C 376.51 178.59 373.34 176.51 369.71 175.56 C 367.35 174.85 364.84 174.53 362.62 173.42 C 361.29 172.39 360.28 171.02 359.20 169.75 C 351.01 168.38 342.85 166.48 335.34 162.83 C 328.16 159.40 319.95 158.46 313.21 154.08 C 317.03 149.94 322.65 148.71 327.61 146.53 C 332.52 144.40 337.43 142.27 342.41 140.31 C 348.28 137.99 353.73 134.70 359.71 132.63 C 366.31 130.35 372.79 127.75 379.24 125.10 C 385.16 122.67 390.09 118.32 396.16 116.21 C 404.11 113.45 411.86 110.14 419.44 106.50 Z" />
<path fill="#d2e5f2" opacity="1.00" d=" M 238.55 171.24 C 239.62 171.21 240.70 171.21 241.78 171.22 C 245.75 172.78 249.73 174.36 253.87 175.46 C 254.56 176.34 255.26 177.23 255.96 178.11 C 248.04 181.50 240.31 185.40 232.17 188.27 C 233.93 182.46 236.35 176.88 238.55 171.24 Z" />
<path fill="#d2e5f2" opacity="1.00" d=" M 48.70 195.17 C 63.30 199.78 77.05 206.67 91.63 211.32 C 100.17 214.11 108.19 218.20 116.64 221.20 C 123.40 223.81 130.51 225.49 136.93 228.93 C 132.99 231.97 128.56 234.25 123.94 236.05 C 117.40 238.77 110.85 241.49 104.43 244.48 C 102.29 245.11 100.12 245.61 97.97 246.17 C 95.48 243.95 92.97 241.62 91.51 238.56 C 88.75 232.76 85.18 227.43 82.04 221.84 C 79.97 218.04 76.04 215.92 73.00 213.01 C 71.23 211.50 69.71 209.59 67.59 208.55 C 63.67 207.95 59.77 209.34 55.84 209.15 C 54.82 209.13 54.12 208.25 53.49 207.57 C 50.60 204.06 49.68 199.49 48.70 195.17 Z" />
<path fill="#d2e5f2" opacity="1.00" d=" M 0.00 269.26 C 3.59 271.96 8.20 272.62 11.93 275.05 C 14.17 276.48 16.18 278.22 18.23 279.90 C 16.80 281.29 15.39 282.69 13.89 284.00 C 9.28 286.18 4.49 287.99 0.00 290.43 L 0.00 269.26 Z" />
<path fill="#d2e5f2" opacity="1.00" d=" M 341.01 299.92 C 344.06 305.17 346.26 310.87 348.00 316.68 C 348.63 319.00 349.11 321.57 348.16 323.89 C 344.07 325.61 339.39 325.36 335.42 327.41 C 332.33 329.24 330.08 332.11 327.51 334.55 C 323.33 338.80 317.92 341.52 313.68 345.70 C 310.12 349.26 305.75 351.76 301.69 354.66 C 298.36 357.00 295.85 360.23 293.04 363.12 C 291.40 364.85 289.02 365.46 286.88 366.32 C 284.59 367.57 282.20 368.91 279.50 368.88 C 269.51 369.61 260.06 365.71 251.04 361.95 C 245.05 359.42 238.57 358.36 232.09 358.22 C 230.84 367.22 224.94 374.83 223.94 383.88 C 225.25 387.29 228.07 389.82 230.13 392.78 C 232.72 396.51 235.63 400.07 237.69 404.13 C 237.08 406.40 235.12 407.94 233.48 409.49 C 229.85 412.52 226.09 415.50 221.86 417.66 C 219.68 418.80 217.18 418.15 214.86 418.01 C 210.53 417.44 206.22 418.64 201.89 418.27 C 196.59 417.83 191.57 415.99 186.46 414.66 C 182.45 413.58 178.34 412.91 174.24 412.24 C 173.78 411.03 173.32 409.83 172.86 408.63 C 170.57 409.80 168.33 411.18 165.78 411.71 C 163.02 411.93 160.33 411.09 157.64 410.64 C 153.58 409.79 149.39 409.65 145.39 408.53 C 141.31 407.38 137.76 405.00 134.01 403.11 C 137.21 403.36 140.41 403.44 143.61 403.67 C 143.20 402.58 142.79 401.50 142.39 400.42 C 147.38 398.50 151.96 402.13 156.83 402.60 C 159.87 401.25 161.75 398.29 163.79 395.80 C 167.54 391.16 169.88 385.48 174.25 381.33 C 179.01 376.60 183.09 371.20 186.26 365.28 C 182.77 365.77 179.28 366.31 175.79 366.83 C 180.19 364.53 184.75 362.57 189.41 360.85 C 188.10 357.88 186.79 354.93 185.46 351.97 C 183.29 353.33 181.15 354.75 179.02 356.19 C 178.94 352.44 177.76 348.87 176.34 345.44 C 178.40 341.82 180.57 338.23 183.42 335.16 C 186.09 336.96 188.88 338.59 191.87 339.82 C 197.33 342.06 202.41 345.22 208.14 346.80 C 216.76 349.30 225.04 352.97 233.91 354.54 C 234.75 351.15 235.75 347.74 237.68 344.79 C 240.76 339.90 243.64 334.88 245.83 329.53 C 247.02 326.46 249.02 323.83 251.21 321.41 C 251.06 319.81 250.82 318.22 250.91 316.61 C 251.87 315.79 252.99 315.18 254.07 314.53 C 254.29 313.44 254.50 312.35 254.70 311.26 C 261.05 309.84 267.58 310.52 274.02 310.68 C 281.20 310.73 288.56 312.86 295.54 310.23 C 303.18 314.90 312.37 315.78 321.12 316.24 C 324.57 316.37 328.12 317.17 331.53 316.32 C 335.61 314.65 338.95 311.67 342.65 309.34 C 342.17 306.19 341.71 303.03 341.01 299.92 Z" />
<path fill="#d2e5f2" opacity="1.00" d=" M 0.00 351.87 C 5.24 353.59 10.48 355.34 15.55 357.53 C 19.46 359.74 23.69 361.28 28.08 362.20 C 34.42 363.55 40.06 366.90 46.20 368.81 C 47.61 369.39 48.94 368.49 50.16 367.92 C 50.32 369.01 50.48 370.11 50.65 371.22 C 57.73 373.90 64.94 376.23 71.99 379.03 C 77.83 381.39 84.01 382.86 89.75 385.52 C 91.73 386.32 93.69 387.43 95.88 387.54 C 97.65 387.13 99.28 386.29 100.93 385.57 C 100.86 386.41 100.78 387.25 100.71 388.10 C 105.79 390.20 110.44 393.14 115.12 395.98 C 110.76 394.95 106.59 393.32 102.53 391.47 C 99.20 389.81 95.44 390.59 91.94 391.07 C 92.57 393.97 93.60 396.84 93.58 399.84 C 93.24 401.84 92.19 403.63 91.40 405.48 C 89.21 409.93 88.78 415.02 86.48 419.43 C 83.47 425.35 80.60 431.37 78.56 437.71 C 77.07 441.62 76.13 446.02 73.14 449.12 C 69.70 450.99 66.10 449.00 63.58 446.59 C 60.05 446.43 56.48 446.11 53.16 444.82 C 46.89 442.48 40.21 441.55 33.93 439.22 C 35.75 445.76 38.07 452.15 40.45 458.50 C 42.58 464.21 46.02 469.34 47.94 475.14 C 49.30 479.34 50.86 483.47 52.59 487.53 C 53.61 489.70 53.56 492.12 53.33 494.45 C 51.72 492.78 50.12 491.10 48.54 489.42 C 44.00 489.27 39.73 487.62 35.40 486.42 C 33.54 485.91 31.75 485.05 30.37 483.66 C 24.31 477.65 18.56 470.98 10.89 466.95 C 13.19 470.93 16.47 474.18 19.60 477.51 C 14.16 478.49 9.38 475.54 4.32 474.25 C 2.30 475.42 1.16 477.57 0.00 479.52 L 0.00 446.69 C 2.86 442.41 6.60 438.83 10.16 435.16 C 13.77 431.39 19.30 429.33 21.32 424.20 C 22.91 420.98 21.81 417.36 20.91 414.13 C 18.60 406.66 15.62 399.33 11.25 392.82 C 8.21 388.37 6.12 383.36 4.89 378.13 C 4.00 374.16 2.14 370.53 0.00 367.11 L 0.00 351.87 Z" />
<path fill="#d2e5f2" opacity="1.00" d=" M 0.00 495.57 C 5.02 495.86 10.31 495.59 14.91 497.95 C 20.24 500.56 25.61 503.11 30.83 505.95 C 30.30 506.81 29.78 507.68 29.25 508.56 C 32.20 508.16 35.28 507.66 38.18 508.66 C 42.59 510.02 46.85 511.82 51.19 513.37 C 48.20 515.83 44.93 518.04 41.23 519.29 C 31.49 522.64 22.10 527.50 14.49 534.52 C 12.81 536.26 10.29 535.79 8.12 535.86 C 7.36 537.36 6.61 538.87 5.86 540.39 C 5.38 538.68 4.91 536.97 4.44 535.27 C 2.96 535.61 1.47 535.94 0.00 536.35 L 0.00 495.57 Z" />
</g>
<g id="#b0d1e6ff">
<path fill="#b0d1e6" opacity="1.00" d=" M 402.29 0.00 L 455.79 0.00 C 457.75 3.54 459.45 7.23 461.08 10.94 C 462.02 13.33 463.10 15.90 462.59 18.52 C 462.24 20.00 461.48 21.78 459.76 22.00 C 457.61 21.97 455.59 21.16 453.61 20.43 C 441.89 15.64 430.08 11.08 418.13 6.93 C 412.65 5.08 407.48 2.50 402.29 0.00 Z" />
<path fill="#b0d1e6" opacity="1.00" d=" M 60.90 129.92 C 68.93 123.04 77.11 116.25 86.16 110.73 C 90.03 115.30 93.51 120.22 97.94 124.29 C 104.09 120.31 109.07 114.85 115.19 110.84 C 115.21 112.54 115.22 114.25 115.22 115.96 C 113.09 117.11 111.06 118.43 109.04 119.77 C 116.18 122.83 123.41 125.69 130.79 128.12 C 134.29 129.62 137.66 131.44 141.23 132.78 C 137.43 131.99 133.52 132.00 129.70 131.37 C 127.36 130.98 125.60 129.23 123.73 127.90 C 122.18 130.97 120.83 134.15 118.98 137.05 C 117.64 139.18 115.27 140.27 113.21 141.55 C 108.25 136.49 103.36 131.35 97.90 126.80 C 93.30 129.25 89.14 132.38 85.00 135.52 C 80.57 138.51 76.21 141.62 72.40 145.41 C 68.40 149.47 62.28 150.22 58.27 154.26 C 53.00 159.34 46.81 163.48 42.26 169.26 C 40.56 171.29 39.90 173.92 39.65 176.50 C 36.73 168.93 32.84 161.77 30.03 154.15 C 32.13 151.87 34.19 149.54 36.58 147.56 C 39.34 145.26 42.52 143.53 45.25 141.20 C 47.59 139.24 49.62 136.89 52.26 135.32 C 55.17 133.58 58.30 132.15 60.90 129.92 Z" />
<path fill="#b0d1e6" opacity="1.00" d=" M 178.27 146.70 C 180.75 147.69 183.19 148.75 185.64 149.80 C 198.08 154.50 210.50 159.24 222.83 164.20 C 226.11 165.67 229.68 166.36 233.27 166.04 C 233.13 166.48 232.84 167.37 232.70 167.82 C 231.33 172.22 229.96 176.69 229.76 181.34 C 229.57 183.45 229.70 185.63 229.12 187.69 C 227.73 189.86 225.37 191.15 223.42 192.75 C 224.10 194.27 224.90 195.75 225.28 197.38 C 225.45 199.83 224.61 202.26 224.89 204.70 C 225.39 207.13 226.49 209.38 227.35 211.70 C 226.14 210.19 224.94 208.68 223.75 207.17 C 220.52 208.32 217.18 209.36 214.40 211.42 C 211.62 213.49 209.59 216.33 207.52 219.06 C 203.51 218.20 199.28 217.58 195.82 215.20 C 192.58 212.99 189.42 210.66 185.90 208.92 C 188.92 213.89 193.53 217.51 197.98 221.14 C 196.25 222.28 194.54 223.43 192.82 224.59 C 192.52 226.84 192.18 229.09 191.81 231.34 C 185.64 225.05 180.41 217.90 174.20 211.64 C 176.40 216.98 179.91 221.63 182.28 226.88 C 175.65 224.00 172.54 217.21 167.62 212.39 C 166.00 210.62 164.14 208.94 163.18 206.69 C 162.98 204.58 163.91 202.57 164.56 200.61 C 167.02 194.37 168.85 187.88 171.85 181.87 C 175.06 175.30 176.57 168.10 179.31 161.36 C 180.63 157.77 182.36 154.23 182.72 150.38 C 181.51 148.85 179.89 147.74 178.27 146.70 Z" />
<path fill="#b0d1e6" opacity="1.00" d=" M 282.47 166.39 C 290.43 163.18 298.39 159.97 306.18 156.33 C 306.15 157.01 306.10 158.37 306.07 159.04 C 303.68 165.80 300.58 172.27 298.15 179.01 C 297.64 178.90 296.61 178.67 296.09 178.56 C 294.85 182.54 293.64 186.53 292.51 190.55 C 291.73 190.25 290.96 189.95 290.18 189.67 C 290.57 189.79 291.35 190.02 291.74 190.14 C 288.76 182.20 286.65 173.76 281.84 166.66 L 282.47 166.39 Z" />
<path fill="#b0d1e6" opacity="1.00" d=" M 42.82 230.95 C 45.37 224.23 49.24 217.48 55.94 214.20 C 59.93 221.22 62.48 228.91 65.83 236.23 C 69.01 243.13 71.83 250.18 75.13 257.02 C 78.88 255.53 82.59 253.96 86.25 252.28 C 92.23 249.49 98.67 247.75 104.43 244.48 C 110.85 241.49 117.40 238.77 123.94 236.05 C 127.58 235.71 131.68 234.99 134.95 237.10 C 138.38 239.18 141.70 241.42 145.23 243.31 C 144.96 246.00 144.75 248.70 144.59 251.40 C 145.36 249.07 146.06 246.72 146.77 244.38 C 148.74 243.83 150.72 243.30 152.70 242.78 C 152.63 244.59 152.55 246.40 152.47 248.21 C 154.12 248.47 155.77 248.73 157.42 248.98 C 152.36 252.27 149.90 257.96 147.19 263.10 C 144.41 269.05 142.63 275.47 139.02 281.02 C 138.21 280.76 137.40 280.50 136.60 280.24 C 137.07 282.69 137.24 285.19 137.05 287.68 C 136.24 293.31 140.93 297.49 143.41 302.03 C 137.83 307.63 131.07 311.87 125.52 317.50 C 123.38 319.61 121.03 321.69 118.02 322.39 C 117.86 322.04 117.53 321.32 117.36 320.96 C 117.64 317.83 119.02 314.94 120.04 312.01 C 113.71 308.41 106.13 309.05 99.65 305.94 C 99.98 307.72 100.30 309.51 100.62 311.29 C 101.22 311.29 101.82 311.29 102.43 311.29 C 102.16 313.22 101.87 315.14 101.67 317.08 C 99.67 313.06 97.64 309.04 96.18 304.78 C 94.38 299.57 91.79 294.69 89.39 289.74 C 86.82 284.12 84.94 278.20 82.31 272.61 C 79.93 267.52 77.46 262.47 75.06 257.39 C 71.30 258.76 67.57 260.24 63.94 261.93 C 56.38 265.46 48.53 268.37 41.05 272.07 C 36.29 274.43 31.32 276.27 26.46 278.40 C 28.30 269.61 31.82 261.31 34.80 252.88 C 37.45 245.56 40.12 238.25 42.82 230.95 Z" />
<path fill="#b0d1e6" opacity="1.00" d=" M 13.89 284.00 C 16.91 282.70 19.96 281.47 22.92 280.05 C 23.18 281.67 23.44 283.29 23.70 284.92 C 23.93 287.60 23.90 290.29 23.95 292.98 C 27.63 294.79 31.09 297.10 33.77 300.23 C 39.05 306.30 44.68 312.11 49.14 318.83 C 51.75 322.84 55.26 326.11 58.48 329.60 C 56.54 335.05 52.22 339.22 47.48 342.32 C 44.66 344.18 41.16 345.34 39.29 348.34 C 36.50 353.02 33.05 357.89 27.68 359.75 C 23.54 360.01 19.52 358.54 15.55 357.53 C 10.48 355.34 5.24 353.59 0.00 351.87 L 0.00 290.43 C 4.49 287.99 9.28 286.18 13.89 284.00 Z" />
<path fill="#b0d1e6" opacity="1.00" d=" M 254.43 287.40 C 258.84 285.94 263.48 287.62 267.52 289.44 C 269.69 290.34 271.49 291.88 273.16 293.52 C 265.48 296.56 257.81 299.68 250.42 303.37 C 248.44 304.25 246.47 305.38 244.27 305.54 C 241.70 305.33 240.42 302.61 241.08 300.30 C 243.37 297.14 247.49 295.99 249.81 292.83 C 251.36 291.05 252.36 288.66 254.43 287.40 Z" />
<path fill="#b0d1e6" opacity="1.00" d=" M 0.00 367.11 C 2.14 370.53 4.00 374.16 4.89 378.13 C 6.12 383.36 8.21 388.37 11.25 392.82 C 15.62 399.33 18.60 406.66 20.91 414.13 C 21.81 417.36 22.91 420.98 21.32 424.20 C 19.30 429.33 13.77 431.39 10.16 435.16 C 6.60 438.83 2.86 442.41 0.00 446.69 L 0.00 367.11 Z" />
</g>
<g id="#e4eff8ff">
<path fill="#e4eff8" opacity="1.00" d=" M 498.68 0.00 L 626.00 0.00 L 626.00 288.78 C 622.10 292.29 618.42 296.06 614.23 299.24 C 611.89 301.02 609.68 302.96 607.57 305.01 C 609.41 305.04 611.27 305.05 613.12 305.07 C 611.16 308.08 609.51 311.57 606.36 313.53 C 603.84 315.15 601.23 313.08 599.00 311.98 C 597.72 312.45 596.43 312.92 595.16 313.41 C 593.43 309.75 590.64 305.95 591.65 301.69 C 593.27 294.56 596.36 287.89 599.12 281.14 C 600.14 278.41 601.25 275.50 600.76 272.53 C 591.70 266.43 580.32 265.38 570.80 260.19 C 567.04 258.13 563.13 256.35 559.07 254.97 C 552.93 252.86 547.19 249.80 541.43 246.83 C 542.57 244.60 543.75 242.39 544.93 240.18 C 543.28 239.60 541.67 238.88 539.95 238.64 C 536.85 239.56 534.45 242.57 531.03 242.36 C 528.51 242.16 525.72 241.66 523.89 239.78 C 522.35 237.64 522.00 234.92 521.24 232.45 C 520.77 232.39 519.82 232.28 519.34 232.22 C 519.41 234.29 519.47 236.36 519.54 238.44 C 517.21 237.08 514.92 235.66 512.64 234.23 C 509.93 234.41 507.08 234.72 504.53 233.57 C 500.44 231.84 496.41 229.90 492.02 229.07 C 481.96 227.11 471.99 223.75 461.61 224.48 C 462.32 220.14 458.30 217.54 455.82 214.66 C 457.79 212.85 459.67 210.93 461.41 208.89 C 455.00 208.38 448.38 207.69 442.74 204.33 C 435.32 199.96 426.75 198.45 418.82 195.31 C 411.72 192.51 404.37 190.50 397.07 188.32 C 393.39 194.90 390.85 202.00 388.21 209.03 C 385.49 216.46 380.78 223.15 379.32 231.02 C 378.57 234.59 378.28 238.35 376.55 241.63 C 375.22 244.16 373.58 246.52 372.06 248.94 C 379.89 245.76 387.56 242.20 395.49 239.26 C 404.15 235.81 412.96 232.64 421.11 228.06 C 424.36 226.50 427.87 224.33 431.62 225.15 C 433.88 227.66 434.92 230.95 436.12 234.04 C 437.98 238.92 439.53 243.91 441.29 248.84 C 442.96 253.76 447.53 256.92 449.36 261.77 C 453.04 271.61 457.59 281.10 461.04 291.04 C 463.90 298.34 467.84 305.17 470.46 312.58 C 472.63 318.98 476.77 324.46 479.17 330.75 C 482.87 340.51 487.14 350.03 491.49 359.50 C 493.84 364.67 495.25 370.21 497.61 375.37 C 502.27 385.60 508.43 395.14 512.18 405.78 C 514.99 413.92 518.76 421.74 520.69 430.17 C 515.77 431.60 511.03 433.58 506.47 435.93 C 505.07 434.18 503.68 432.41 502.27 430.67 C 500.70 431.78 499.14 432.89 497.58 434.01 C 496.83 432.35 496.09 430.68 495.37 429.02 C 491.23 428.49 487.71 430.81 483.95 432.02 C 480.90 431.74 478.94 428.54 475.99 427.82 C 472.62 429.07 469.88 432.11 466.08 431.99 C 460.27 432.05 454.44 431.64 448.64 432.29 C 447.54 434.62 446.41 436.93 445.27 439.24 C 447.73 441.60 450.06 444.11 452.15 446.82 C 449.45 448.31 445.43 449.07 444.57 452.52 C 443.59 456.48 443.74 460.61 443.58 464.66 C 440.11 463.59 436.45 463.21 432.94 464.31 C 433.48 465.48 434.03 466.66 434.58 467.84 C 424.80 473.04 414.62 477.47 404.23 481.29 C 399.35 482.99 396.27 487.35 392.27 490.34 C 389.90 492.09 386.02 492.55 383.82 490.33 C 382.44 487.37 383.18 483.88 382.19 480.80 C 379.03 479.23 375.47 478.83 372.04 478.23 C 372.19 476.41 372.35 474.59 372.52 472.78 C 374.07 472.25 375.62 471.72 377.18 471.20 C 376.07 470.34 374.97 469.49 373.87 468.64 C 375.26 466.65 376.80 464.72 377.78 462.49 C 378.70 460.27 378.97 457.87 379.50 455.56 C 380.23 451.96 381.73 448.59 383.03 445.18 C 387.23 433.67 391.51 422.19 395.60 410.64 C 397.46 405.12 401.24 400.43 402.63 394.73 C 403.73 390.42 405.20 386.21 407.15 382.21 C 409.15 378.16 409.84 373.65 410.25 369.19 C 408.97 369.59 407.70 369.98 406.43 370.38 C 406.13 371.80 405.84 373.24 405.54 374.67 C 404.37 374.75 403.20 374.83 402.04 374.92 C 402.26 369.93 402.52 364.94 402.46 359.95 C 398.56 360.84 394.65 361.83 391.08 363.68 C 385.27 366.72 379.09 369.08 373.66 372.80 C 377.19 379.95 379.87 387.51 381.22 395.38 C 379.30 395.45 377.38 395.53 375.46 395.63 C 377.61 399.32 381.51 401.18 385.28 402.80 C 384.94 403.31 384.26 404.32 383.91 404.83 C 380.92 404.06 377.93 403.30 374.93 402.58 C 373.02 403.50 371.16 404.68 369.05 405.04 C 366.17 405.07 363.43 403.98 360.66 403.34 C 355.30 401.81 349.50 401.28 344.72 398.17 C 341.69 396.39 338.82 393.60 335.04 393.89 C 328.95 394.08 322.54 394.14 316.98 396.99 C 312.22 399.34 307.02 400.65 302.41 403.32 C 296.56 406.66 290.69 410.11 284.27 412.26 C 277.72 414.43 271.51 417.46 265.19 420.22 C 260.45 422.27 256.09 425.11 251.36 427.21 C 245.64 429.71 239.83 432.05 233.81 433.73 C 230.39 434.66 227.32 436.55 223.92 437.52 C 217.27 436.81 211.45 431.90 204.58 432.44 C 202.45 435.27 200.49 438.28 199.00 441.50 C 197.78 444.03 197.51 447.23 195.10 449.02 C 188.37 454.26 179.90 456.35 172.57 460.55 C 166.74 463.86 160.69 466.75 154.50 469.33 C 147.75 472.05 141.26 475.55 134.04 476.94 C 129.58 477.73 125.73 480.21 122.32 483.09 C 127.13 485.73 132.10 488.36 135.68 492.65 C 133.16 494.53 130.47 496.19 128.12 498.30 C 126.98 499.32 126.50 501.13 127.28 502.51 C 128.47 504.71 130.31 506.47 131.98 508.31 C 128.15 510.52 124.36 512.78 120.59 515.09 C 122.40 520.08 125.38 524.51 129.00 528.36 C 127.12 530.47 125.21 532.56 123.28 534.62 C 124.87 536.08 126.86 537.29 127.86 539.27 C 127.58 541.34 126.49 543.18 125.63 545.07 C 127.00 548.34 128.34 551.63 129.69 554.91 C 131.99 556.79 134.13 558.85 136.19 561.00 C 131.81 565.38 126.85 569.12 122.04 573.01 C 119.33 575.21 115.94 576.22 112.69 577.34 C 112.44 578.71 112.21 580.10 111.82 581.46 C 105.70 582.97 99.94 579.20 94.15 577.79 C 91.25 585.49 87.98 593.05 84.28 600.40 C 80.67 608.80 78.00 617.57 74.44 626.00 L 0.00 626.00 L 0.00 536.35 C 1.47 535.94 2.96 535.61 4.44 535.27 C 4.91 536.97 5.38 538.68 5.86 540.39 C 6.61 538.87 7.36 537.36 8.12 535.86 C 10.29 535.79 12.81 536.26 14.49 534.52 C 22.10 527.50 31.49 522.64 41.23 519.29 C 44.93 518.04 48.20 515.83 51.19 513.37 C 46.85 511.82 42.59 510.02 38.18 508.66 C 35.28 507.66 32.20 508.16 29.25 508.56 C 29.78 507.68 30.30 506.81 30.83 505.95 C 25.61 503.11 20.24 500.56 14.91 497.95 C 10.31 495.59 5.02 495.86 0.00 495.57 L 0.00 479.52 C 1.16 477.57 2.30 475.42 4.32 474.25 C 9.38 475.54 14.16 478.49 19.60 477.51 C 16.47 474.18 13.19 470.93 10.89 466.95 C 18.56 470.98 24.31 477.65 30.37 483.66 C 31.75 485.05 33.54 485.91 35.40 486.42 C 39.73 487.62 44.00 489.27 48.54 489.42 C 50.12 491.10 51.72 492.78 53.33 494.45 C 53.56 492.12 53.61 489.70 52.59 487.53 C 50.86 483.47 49.30 479.34 47.94 475.14 C 46.02 469.34 42.58 464.21 40.45 458.50 C 38.07 452.15 35.75 445.76 33.93 439.22 C 40.21 441.55 46.89 442.48 53.16 444.82 C 56.48 446.11 60.05 446.43 63.58 446.59 C 66.10 449.00 69.70 450.99 73.14 449.12 C 76.13 446.02 77.07 441.62 78.56 437.71 C 80.60 431.37 83.47 425.35 86.48 419.43 C 88.78 415.02 89.21 409.93 91.40 405.48 C 92.19 403.63 93.24 401.84 93.58 399.84 C 93.60 396.84 92.57 393.97 91.94 391.07 C 95.44 390.59 99.20 389.81 102.53 391.47 C 106.59 393.32 110.76 394.95 115.12 395.98 C 121.54 398.03 127.64 400.93 134.01 403.11 C 137.76 405.00 141.31 407.38 145.39 408.53 C 149.39 409.65 153.58 409.79 157.64 410.64 C 160.33 411.09 163.02 411.93 165.78 411.71 C 168.33 411.18 170.57 409.80 172.86 408.63 C 173.32 409.83 173.78 411.03 174.24 412.24 C 178.34 412.91 182.45 413.58 186.46 414.66 C 191.57 415.99 196.59 417.83 201.89 418.27 C 206.22 418.64 210.53 417.44 214.86 418.01 C 217.18 418.15 219.68 418.80 221.86 417.66 C 226.09 415.50 229.85 412.52 233.48 409.49 C 235.12 407.94 237.08 406.40 237.69 404.13 C 235.63 400.07 232.72 396.51 230.13 392.78 C 228.07 389.82 225.25 387.29 223.94 383.88 C 224.94 374.83 230.84 367.22 232.09 358.22 C 238.57 358.36 245.05 359.42 251.04 361.95 C 260.06 365.71 269.51 369.61 279.50 368.88 C 282.20 368.91 284.59 367.57 286.88 366.32 C 289.02 365.46 291.40 364.85 293.04 363.12 C 295.85 360.23 298.36 357.00 301.69 354.66 C 305.75 351.76 310.12 349.26 313.68 345.70 C 317.92 341.52 323.33 338.80 327.51 334.55 C 330.08 332.11 332.33 329.24 335.42 327.41 C 339.39 325.36 344.07 325.61 348.16 323.89 C 349.11 321.57 348.63 319.00 348.00 316.68 C 346.26 310.87 344.06 305.17 341.01 299.92 C 336.80 292.33 334.52 283.90 330.81 276.08 C 326.71 267.34 323.17 258.35 319.52 249.42 C 317.92 245.55 315.63 242.02 313.70 238.32 C 311.79 234.65 310.59 230.69 309.07 226.86 C 306.97 221.48 303.90 216.54 301.92 211.11 C 300.32 206.79 298.63 202.50 296.58 198.38 C 295.35 195.57 293.63 192.56 294.45 189.39 C 295.28 185.80 296.86 182.45 298.15 179.01 C 300.58 172.27 303.68 165.80 306.07 159.04 C 306.77 157.16 307.54 155.30 308.20 153.40 C 312.52 151.23 312.89 146.14 314.21 142.05 C 316.20 134.90 320.37 128.62 322.59 121.55 C 324.00 117.01 326.26 112.81 328.96 108.93 C 331.40 105.53 332.84 101.58 333.78 97.53 C 334.32 97.07 334.86 96.62 335.41 96.16 C 335.98 98.03 336.56 99.89 337.15 101.75 C 338.84 100.60 340.67 99.57 341.97 97.95 C 343.48 96.20 344.57 94.04 346.49 92.69 C 348.55 91.25 350.83 90.16 353.04 88.98 C 352.55 87.20 352.16 85.38 351.37 83.70 C 348.49 81.23 344.38 80.79 341.54 78.26 C 340.63 76.30 341.65 74.15 342.21 72.24 C 345.01 65.12 347.51 57.87 351.07 51.08 C 357.63 54.22 364.92 54.98 371.81 57.07 C 374.07 56.22 376.51 54.87 378.96 55.89 C 382.77 57.07 384.56 61.10 387.91 62.97 C 390.56 64.24 393.42 65.00 396.13 66.12 C 398.74 67.09 401.34 68.47 404.21 68.38 C 407.29 68.24 410.25 67.27 413.20 66.44 C 411.49 64.19 409.82 61.93 408.23 59.60 C 413.47 61.28 417.70 64.82 422.16 67.87 C 425.39 70.17 429.72 71.10 433.48 69.58 C 435.23 68.44 436.23 66.51 437.48 64.89 C 432.73 64.32 427.89 64.04 423.35 62.40 C 427.35 61.32 431.53 60.86 435.41 59.38 C 437.81 58.33 440.34 56.53 440.77 53.76 C 441.34 50.58 441.10 47.33 441.00 44.13 C 442.45 46.59 444.01 48.99 445.67 51.33 C 450.85 45.04 453.05 37.06 457.09 30.10 C 458.73 27.07 461.87 25.41 464.20 23.01 C 465.09 21.23 465.18 19.19 465.57 17.26 C 472.89 19.26 479.96 22.16 487.40 23.77 C 487.54 22.92 487.69 22.07 487.84 21.22 C 493.62 15.44 495.17 7.11 498.68 0.00 M 468.11 26.98 C 470.23 34.93 473.80 42.39 477.18 49.85 C 477.70 50.98 478.07 52.24 477.49 53.42 C 474.92 60.71 471.40 67.63 468.97 74.98 C 467.84 78.68 465.37 81.73 462.92 84.64 C 464.33 84.95 465.81 85.72 467.26 85.14 C 473.47 82.92 479.35 79.88 485.42 77.31 C 486.88 76.89 488.65 75.79 490.06 76.94 C 491.86 79.73 492.69 83.00 493.98 86.05 C 495.36 89.62 497.31 92.93 499.42 96.11 C 503.39 91.14 504.47 84.71 507.09 79.05 C 508.74 75.44 510.36 71.80 512.39 68.39 C 513.73 65.83 516.70 65.08 519.15 63.99 C 524.48 62.00 529.12 58.63 534.25 56.24 C 535.52 55.40 537.59 55.04 537.78 53.24 C 533.02 49.64 526.91 48.89 521.68 46.30 C 520.92 43.89 520.82 41.33 520.07 38.92 C 512.56 35.08 503.95 33.77 496.72 29.31 C 494.36 27.79 491.61 27.14 488.82 27.14 C 487.88 28.67 487.81 31.28 485.72 31.71 C 483.44 31.73 481.36 30.60 479.26 29.87 C 475.70 28.37 471.92 27.51 468.11 26.98 M 419.44 106.50 C 411.86 110.14 404.11 113.45 396.16 116.21 C 390.09 118.32 385.16 122.67 379.24 125.10 C 372.79 127.75 366.31 130.35 359.71 132.63 C 353.73 134.70 348.28 137.99 342.41 140.31 C 337.43 142.27 332.52 144.40 327.61 146.53 C 322.65 148.71 317.03 149.94 313.21 154.08 C 319.95 158.46 328.16 159.40 335.34 162.83 C 342.85 166.48 351.01 168.38 359.20 169.75 C 360.28 171.02 361.29 172.39 362.62 173.42 C 364.84 174.53 367.35 174.85 369.71 175.56 C 373.34 176.51 376.51 178.59 379.90 180.14 C 385.03 182.53 390.48 184.19 396.01 185.40 C 399.26 179.25 401.85 172.78 404.36 166.30 C 406.03 161.81 408.60 157.70 410.07 153.13 C 413.46 141.58 417.91 130.39 422.13 119.14 C 424.28 114.14 426.51 109.16 427.87 103.88 C 424.97 104.43 422.10 105.19 419.44 106.50 Z" />
</g>
<g id="#94b8d8ff">
<path fill="#94b8d8" opacity="1.00" d=" M 210.34 22.62 C 213.16 25.18 215.60 28.12 217.68 31.32 C 221.01 36.55 225.97 40.47 229.35 45.67 C 231.56 49.04 234.20 52.09 236.96 55.02 C 240.99 59.43 243.77 64.79 247.73 69.25 C 254.84 77.47 260.91 86.59 268.67 94.22 C 268.39 94.92 268.12 95.62 267.86 96.32 C 264.81 104.71 261.07 112.82 258.16 121.26 C 256.12 127.34 252.81 132.90 250.92 139.04 C 247.02 149.42 243.11 159.81 238.84 170.05 C 236.81 169.26 234.76 168.53 232.70 167.82 C 232.84 167.37 233.13 166.48 233.27 166.04 C 229.68 166.36 226.11 165.67 222.83 164.20 C 210.50 159.24 198.08 154.50 185.64 149.80 C 185.31 144.16 187.90 139.01 189.77 133.86 C 191.56 129.04 194.44 124.67 195.80 119.68 C 197.12 114.99 199.05 110.51 201.11 106.10 C 204.68 98.39 207.33 90.31 210.38 82.39 C 211.44 79.47 212.62 76.50 212.70 73.35 C 211.36 71.88 209.50 71.06 207.67 70.37 C 198.39 67.17 188.72 64.95 179.91 60.51 L 179.27 60.22 C 187.43 54.52 194.81 47.82 202.57 41.60 C 204.72 39.74 207.21 37.85 207.96 34.96 C 209.05 30.91 209.46 26.72 210.34 22.62 Z" />
<path fill="#94b8d8" opacity="1.00" d=" M 63.94 261.93 C 67.57 260.24 71.30 258.76 75.06 257.39 C 77.46 262.47 79.93 267.52 82.31 272.61 C 84.94 278.20 86.82 284.12 89.39 289.74 C 87.22 292.38 85.33 295.39 82.47 297.36 C 80.49 297.71 78.49 297.04 76.51 296.87 C 72.06 296.21 67.43 296.60 63.17 294.92 C 56.31 292.35 49.06 290.72 41.73 290.41 C 38.11 290.28 34.96 292.34 31.89 293.97 C 28.91 291.19 26.01 288.29 23.70 284.92 C 23.44 283.29 23.18 281.67 22.92 280.05 C 24.10 279.49 25.27 278.93 26.46 278.40 C 31.32 276.27 36.29 274.43 41.05 272.07 C 48.53 268.37 56.38 265.46 63.94 261.93 Z" />
</g>
<g id="#a1d7e9ff">
<path fill="#a1d7e9" opacity="1.00" d=" M 315.30 27.11 C 319.91 25.06 325.06 25.23 329.99 25.44 C 331.67 30.24 335.20 34.02 337.78 38.34 C 339.62 41.69 343.74 42.36 346.39 44.82 C 347.44 46.43 347.88 48.35 348.51 50.14 C 344.89 59.03 340.87 67.76 337.74 76.84 C 335.46 83.41 332.61 89.77 330.15 96.27 C 323.95 113.39 316.70 130.10 309.91 146.98 C 309.20 148.20 308.45 149.38 307.71 150.58 C 300.35 148.69 293.33 145.66 285.93 143.92 C 281.39 142.85 277.02 141.19 272.80 139.23 C 272.05 139.78 271.30 140.33 270.55 140.89 C 276.31 148.54 277.03 158.56 282.47 166.39 L 281.84 166.66 C 273.91 169.85 266.31 173.77 258.45 177.12 C 256.96 176.46 255.42 175.93 253.87 175.46 C 249.73 174.36 245.75 172.78 241.78 171.22 C 240.80 170.83 239.82 170.44 238.84 170.05 C 243.11 159.81 247.02 149.42 250.92 139.04 C 252.81 132.90 256.12 127.34 258.16 121.26 C 261.07 112.82 264.81 104.71 267.86 96.32 C 273.54 100.00 277.80 105.40 283.12 109.53 C 285.90 106.77 288.70 104.01 291.57 101.34 C 290.62 100.33 289.68 99.33 288.75 98.32 C 295.49 96.16 302.77 94.95 308.61 90.68 C 309.76 89.73 310.07 88.17 310.69 86.88 C 312.03 83.01 314.99 79.94 316.10 75.97 C 316.75 73.51 317.78 70.41 315.73 68.31 C 312.99 65.20 308.86 63.95 305.14 62.43 C 307.01 61.13 309.12 60.02 310.55 58.20 C 311.23 55.55 309.31 53.14 308.06 50.98 C 305.29 47.13 302.83 42.89 299.10 39.88 C 296.25 38.54 292.92 39.45 289.89 39.49 C 290.74 37.31 291.61 35.14 292.46 32.96 C 294.31 34.32 296.09 35.92 298.31 36.67 C 300.34 37.09 302.23 35.88 303.86 34.82 C 307.61 32.17 310.98 28.87 315.30 27.11 Z" />
</g>
<g id="#f5f9fdff">
<path fill="#f5f9fd" opacity="1.00" d=" M 468.11 26.98 C 471.92 27.51 475.70 28.37 479.26 29.87 C 481.36 30.60 483.44 31.73 485.72 31.71 C 487.81 31.28 487.88 28.67 488.82 27.14 C 491.61 27.14 494.36 27.79 496.72 29.31 C 503.95 33.77 512.56 35.08 520.07 38.92 C 520.82 41.33 520.92 43.89 521.68 46.30 C 526.91 48.89 533.02 49.64 537.78 53.24 C 537.59 55.04 535.52 55.40 534.25 56.24 C 529.12 58.63 524.48 62.00 519.15 63.99 C 516.70 65.08 513.73 65.83 512.39 68.39 C 510.36 71.80 508.74 75.44 507.09 79.05 C 504.47 84.71 503.39 91.14 499.42 96.11 C 497.31 92.93 495.36 89.62 493.98 86.05 C 492.69 83.00 491.86 79.73 490.06 76.94 C 488.65 75.79 486.88 76.89 485.42 77.31 C 479.35 79.88 473.47 82.92 467.26 85.14 C 465.81 85.72 464.33 84.95 462.92 84.64 C 465.37 81.73 467.84 78.68 468.97 74.98 C 471.40 67.63 474.92 60.71 477.49 53.42 C 478.07 52.24 477.70 50.98 477.18 49.85 C 473.80 42.39 470.23 34.93 468.11 26.98 Z" />
<path fill="#f5f9fd" opacity="1.00" d=" M 397.07 188.32 C 404.37 190.50 411.72 192.51 418.82 195.31 C 426.75 198.45 435.32 199.96 442.74 204.33 C 448.38 207.69 455.00 208.38 461.41 208.89 C 459.67 210.93 457.79 212.85 455.82 214.66 C 458.30 217.54 462.32 220.14 461.61 224.48 C 471.99 223.75 481.96 227.11 492.02 229.07 C 496.41 229.90 500.44 231.84 504.53 233.57 C 507.08 234.72 509.93 234.41 512.64 234.23 C 514.92 235.66 517.21 237.08 519.54 238.44 C 519.47 236.36 519.41 234.29 519.34 232.22 C 519.82 232.28 520.77 232.39 521.24 232.45 C 522.00 234.92 522.35 237.64 523.89 239.78 C 525.72 241.66 528.51 242.16 531.03 242.36 C 534.45 242.57 536.85 239.56 539.95 238.64 C 541.67 238.88 543.28 239.60 544.93 240.18 C 543.75 242.39 542.57 244.60 541.43 246.83 C 547.19 249.80 552.93 252.86 559.07 254.97 C 563.13 256.35 567.04 258.13 570.80 260.19 C 580.32 265.38 591.70 266.43 600.76 272.53 C 601.25 275.50 600.14 278.41 599.12 281.14 C 596.36 287.89 593.27 294.56 591.65 301.69 C 590.64 305.95 593.43 309.75 595.16 313.41 C 596.43 312.92 597.72 312.45 599.00 311.98 C 601.23 313.08 603.84 315.15 606.36 313.53 C 609.51 311.57 611.16 308.08 613.12 305.07 C 611.27 305.05 609.41 305.04 607.57 305.01 C 609.68 302.96 611.89 301.02 614.23 299.24 C 618.42 296.06 622.10 292.29 626.00 288.78 L 626.00 626.00 L 74.44 626.00 C 78.00 617.57 80.67 608.80 84.28 600.40 C 87.98 593.05 91.25 585.49 94.15 577.79 C 99.94 579.20 105.70 582.97 111.82 581.46 C 112.21 580.10 112.44 578.71 112.69 577.34 C 115.94 576.22 119.33 575.21 122.04 573.01 C 126.85 569.12 131.81 565.38 136.19 561.00 C 134.13 558.85 131.99 556.79 129.69 554.91 C 128.34 551.63 127.00 548.34 125.63 545.07 C 126.49 543.18 127.58 541.34 127.86 539.27 C 126.86 537.29 124.87 536.08 123.28 534.62 C 125.21 532.56 127.12 530.47 129.00 528.36 C 125.38 524.51 122.40 520.08 120.59 515.09 C 124.36 512.78 128.15 510.52 131.98 508.31 C 130.31 506.47 128.47 504.71 127.28 502.51 C 126.50 501.13 126.98 499.32 128.12 498.30 C 130.47 496.19 133.16 494.53 135.68 492.65 C 132.10 488.36 127.13 485.73 122.32 483.09 C 125.73 480.21 129.58 477.73 134.04 476.94 C 141.26 475.55 147.75 472.05 154.50 469.33 C 160.69 466.75 166.74 463.86 172.57 460.55 C 179.90 456.35 188.37 454.26 195.10 449.02 C 197.51 447.23 197.78 444.03 199.00 441.50 C 200.49 438.28 202.45 435.27 204.58 432.44 C 211.45 431.90 217.27 436.81 223.92 437.52 C 227.32 436.55 230.39 434.66 233.81 433.73 C 239.83 432.05 245.64 429.71 251.36 427.21 C 256.09 425.11 260.45 422.27 265.19 420.22 C 271.51 417.46 277.72 414.43 284.27 412.26 C 290.69 410.11 296.56 406.66 302.41 403.32 C 307.02 400.65 312.22 399.34 316.98 396.99 C 322.54 394.14 328.95 394.08 335.04 393.89 C 338.82 393.60 341.69 396.39 344.72 398.17 C 349.50 401.28 355.30 401.81 360.66 403.34 C 363.43 403.98 366.17 405.07 369.05 405.04 C 371.16 404.68 373.02 403.50 374.93 402.58 C 377.93 403.30 380.92 404.06 383.91 404.83 C 384.26 404.32 384.94 403.31 385.28 402.80 C 381.51 401.18 377.61 399.32 375.46 395.63 C 377.38 395.53 379.30 395.45 381.22 395.38 C 379.87 387.51 377.19 379.95 373.66 372.80 C 379.09 369.08 385.27 366.72 391.08 363.68 C 394.65 361.83 398.56 360.84 402.46 359.95 C 402.52 364.94 402.26 369.93 402.04 374.92 C 403.20 374.83 404.37 374.75 405.54 374.67 C 405.84 373.24 406.13 371.80 406.43 370.38 C 407.70 369.98 408.97 369.59 410.25 369.19 C 409.84 373.65 409.15 378.16 407.15 382.21 C 405.20 386.21 403.73 390.42 402.63 394.73 C 401.24 400.43 397.46 405.12 395.60 410.64 C 391.51 422.19 387.23 433.67 383.03 445.18 C 381.73 448.59 380.23 451.96 379.50 455.56 C 378.97 457.87 378.70 460.27 377.78 462.49 C 376.80 464.72 375.26 466.65 373.87 468.64 C 374.97 469.49 376.07 470.34 377.18 471.20 C 375.62 471.72 374.07 472.25 372.52 472.78 C 372.35 474.59 372.19 476.41 372.04 478.23 C 375.47 478.83 379.03 479.23 382.19 480.80 C 383.18 483.88 382.44 487.37 383.82 490.33 C 386.02 492.55 389.90 492.09 392.27 490.34 C 396.27 487.35 399.35 482.99 404.23 481.29 C 414.62 477.47 424.80 473.04 434.58 467.84 C 434.03 466.66 433.48 465.48 432.94 464.31 C 436.45 463.21 440.11 463.59 443.58 464.66 C 443.74 460.61 443.59 456.48 444.57 452.52 C 445.43 449.07 449.45 448.31 452.15 446.82 C 450.06 444.11 447.73 441.60 445.27 439.24 C 446.41 436.93 447.54 434.62 448.64 432.29 C 454.44 431.64 460.27 432.05 466.08 431.99 C 469.88 432.11 472.62 429.07 475.99 427.82 C 478.94 428.54 480.90 431.74 483.95 432.02 C 487.71 430.81 491.23 428.49 495.37 429.02 C 496.09 430.68 496.83 432.35 497.58 434.01 C 499.14 432.89 500.70 431.78 502.27 430.67 C 503.68 432.41 505.07 434.18 506.47 435.93 C 511.03 433.58 515.77 431.60 520.69 430.17 C 518.76 421.74 514.99 413.92 512.18 405.78 C 508.43 395.14 502.27 385.60 497.61 375.37 C 495.25 370.21 493.84 364.67 491.49 359.50 C 487.14 350.03 482.87 340.51 479.17 330.75 C 476.77 324.46 472.63 318.98 470.46 312.58 C 467.84 305.17 463.90 298.34 461.04 291.04 C 457.59 281.10 453.04 271.61 449.36 261.77 C 447.53 256.92 442.96 253.76 441.29 248.84 C 439.53 243.91 437.98 238.92 436.12 234.04 C 434.92 230.95 433.88 227.66 431.62 225.15 C 427.87 224.33 424.36 226.50 421.11 228.06 C 412.96 232.64 404.15 235.81 395.49 239.26 C 387.56 242.20 379.89 245.76 372.06 248.94 C 373.58 246.52 375.22 244.16 376.55 241.63 C 378.28 238.35 378.57 234.59 379.32 231.02 C 380.78 223.15 385.49 216.46 388.21 209.03 C 390.85 202.00 393.39 194.90 397.07 188.32 Z" />
</g>
<g id="#9ccae2ff">
<path fill="#9ccae2" opacity="1.00" d=" M 8.99 40.03 C 10.24 38.74 11.57 37.52 12.89 36.29 C 19.29 42.36 24.94 49.25 29.07 57.08 C 22.33 63.41 14.52 68.46 7.84 74.86 C 5.35 77.23 2.72 79.45 0.00 81.57 L 0.00 59.92 C 3.78 53.65 6.02 46.67 8.99 40.03 Z" />
<path fill="#9ccae2" opacity="1.00" d=" M 289.89 39.49 C 292.92 39.45 296.25 38.54 299.10 39.88 C 302.83 42.89 305.29 47.13 308.06 50.98 C 309.31 53.14 311.23 55.55 310.55 58.20 C 309.12 60.02 307.01 61.13 305.14 62.43 C 308.86 63.95 312.99 65.20 315.73 68.31 C 317.78 70.41 316.75 73.51 316.10 75.97 C 314.99 79.94 312.03 83.01 310.69 86.88 C 310.07 88.17 309.76 89.73 308.61 90.68 C 302.77 94.95 295.49 96.16 288.75 98.32 C 289.68 99.33 290.62 100.33 291.57 101.34 C 288.70 104.01 285.90 106.77 283.12 109.53 C 277.80 105.40 273.54 100.00 267.86 96.32 C 268.12 95.62 268.39 94.92 268.67 94.22 C 272.26 85.50 275.88 76.77 278.95 67.84 C 282.43 58.85 286.26 49.99 289.37 40.86 C 289.50 40.51 289.76 39.83 289.89 39.49 Z" />
<path fill="#9ccae2" opacity="1.00" d=" M 119.37 55.46 C 120.04 56.02 120.71 56.59 121.38 57.15 C 124.74 56.26 128.24 54.95 131.75 55.76 C 133.93 56.17 135.00 58.32 136.27 59.89 C 132.16 70.26 128.09 80.64 124.13 91.06 C 121.81 96.65 119.52 102.28 118.15 108.18 C 126.16 103.84 132.46 97.11 139.78 91.78 C 145.98 87.37 151.09 81.68 157.18 77.15 C 161.92 73.54 166.87 70.22 171.45 66.41 C 174.09 64.20 176.91 62.21 179.91 60.51 C 188.72 64.95 198.39 67.17 207.67 70.37 C 209.50 71.06 211.36 71.88 212.70 73.35 C 212.62 76.50 211.44 79.47 210.38 82.39 C 207.33 90.31 204.68 98.39 201.11 106.10 C 199.05 110.51 197.12 114.99 195.80 119.68 C 194.44 124.67 191.56 129.04 189.77 133.86 C 187.90 139.01 185.31 144.16 185.64 149.80 C 183.19 148.75 180.75 147.69 178.27 146.70 C 165.77 142.48 153.79 136.86 141.23 132.78 C 137.66 131.44 134.29 129.62 130.79 128.12 C 134.41 128.96 138.06 129.71 141.63 130.77 C 141.42 128.29 141.00 125.78 141.38 123.30 C 141.85 121.63 142.76 120.13 143.56 118.61 C 142.04 117.95 140.52 117.28 139.00 116.61 C 142.15 115.91 145.27 115.01 148.49 114.66 C 151.93 114.37 155.22 115.75 158.62 115.98 C 161.60 113.39 163.14 109.60 165.66 106.62 C 169.10 102.43 172.59 98.23 175.05 93.37 C 171.82 93.53 168.61 94.20 165.69 95.62 C 160.56 98.00 155.20 99.80 149.99 101.98 C 138.59 107.10 126.76 111.17 115.22 115.96 C 115.22 114.25 115.21 112.54 115.19 110.84 C 109.07 114.85 104.09 120.31 97.94 124.29 C 93.51 120.22 90.03 115.30 86.16 110.73 C 77.11 116.25 68.93 123.04 60.90 129.92 C 58.30 132.15 55.17 133.58 52.26 135.32 C 49.62 136.89 47.59 139.24 45.25 141.20 C 42.52 143.53 39.34 145.26 36.58 147.56 C 34.19 149.54 32.13 151.87 30.03 154.15 C 32.84 161.77 36.73 168.93 39.65 176.50 C 41.94 181.96 44.47 187.33 46.03 193.06 C 39.09 191.50 32.69 188.34 26.00 186.03 C 17.34 183.00 8.80 179.62 0.00 177.04 L 0.00 175.50 C 1.58 173.33 3.18 171.06 5.39 169.49 C 8.79 167.62 12.96 167.49 16.12 165.11 C 20.75 161.65 25.14 157.87 29.42 154.00 C 26.75 147.08 22.74 140.80 19.92 133.96 C 16.00 124.56 12.43 115.02 8.15 105.78 C 6.14 101.46 4.37 97.03 2.71 92.57 C 2.66 90.72 2.71 88.87 2.75 87.03 C 5.09 86.25 7.41 85.41 9.74 84.61 C 9.86 83.21 9.99 81.82 10.12 80.42 C 13.79 83.18 17.60 85.85 20.62 89.35 C 22.52 91.41 24.13 93.81 26.44 95.45 C 28.59 96.62 31.12 96.64 33.49 97.00 C 33.23 95.82 32.97 94.64 32.70 93.46 C 33.86 92.95 35.02 92.44 36.18 91.93 C 32.11 86.57 26.22 83.03 22.06 77.76 C 28.66 80.91 33.61 86.61 40.32 89.60 C 41.75 87.70 43.02 85.57 45.03 84.23 C 46.66 84.77 48.18 85.57 49.71 86.33 C 50.30 83.83 50.48 81.09 51.98 78.94 C 54.39 76.49 57.78 75.42 60.61 73.57 C 65.11 70.83 67.69 65.58 72.77 63.70 C 75.34 62.60 77.95 64.15 80.40 64.88 C 90.64 62.67 101.35 63.30 111.56 65.40 C 113.44 65.70 115.92 66.05 117.15 64.19 C 118.53 61.49 118.78 58.40 119.37 55.46 Z" />
<path fill="#9ccae2" opacity="1.00" d=" M 258.45 177.12 C 266.31 173.77 273.91 169.85 281.84 166.66 C 286.65 173.76 288.76 182.20 291.74 190.14 C 291.35 190.02 290.57 189.79 290.18 189.67 C 279.49 185.81 268.36 182.83 258.45 177.12 Z" />
<path fill="#9ccae2" opacity="1.00" d=" M 23.70 284.92 C 26.01 288.29 28.91 291.19 31.89 293.97 C 34.96 292.34 38.11 290.28 41.73 290.41 C 49.06 290.72 56.31 292.35 63.17 294.92 C 67.43 296.60 72.06 296.21 76.51 296.87 C 78.49 297.04 80.49 297.71 82.47 297.36 C 85.33 295.39 87.22 292.38 89.39 289.74 C 91.79 294.69 94.38 299.57 96.18 304.78 C 97.64 309.04 99.67 313.06 101.67 317.08 C 102.66 322.15 105.61 326.60 106.60 331.61 C 104.48 334.81 101.01 336.71 98.13 339.13 C 92.01 344.19 85.24 348.43 79.43 353.86 C 70.48 347.69 65.16 337.91 58.48 329.60 C 55.26 326.11 51.75 322.84 49.14 318.83 C 44.68 312.11 39.05 306.30 33.77 300.23 C 31.09 297.10 27.63 294.79 23.95 292.98 C 23.90 290.29 23.93 287.60 23.70 284.92 Z" />
</g>
</svg>
